{"title":"Despicable Me-2(2013)1080p BDRip[Hindi(Dts)-Eng]DD5.1-DGrea8","uid":9101616,"size":5110479824,"categoryP":"video","categoryS":"hd___movies","magnet":"?xt=urn:btih:316ac742bfe67a903732df2dff2458320419d200&amp;dn=Despicable+Me-2%282013%291080p+BDRip%5BHindi%28Dts%29-Eng%5DDD5.1-DGrea8&amp;tr=udp%3A%2F%2Ftracker.openbittorrent.com%3A80&amp;tr=udp%3A%2F%2Fopen.demonii.com%3A1337&amp;tr=udp%3A%2F%2Ftracker.coppersurfer.tk%3A6969&amp;tr=udp%3A%2F%2Fexodus.desync.com%3A6969","seeders":3,"leechers":0,"uploader":"DGrea8","files":9,"time":1382780796,"description":"\n    Despicable Me-2(2013)1080p BDRip[Hindi(Dts)-Eng]DD5.1-DGrea8(Team-Gpsoft)\n\n\nSummary:-\n\nWhile Gru, the ex-supervillain is adjusting to family life and an attempted honest living in the jam business, a secret Arctic laboratory is stolen. The Anti-Villain League decides it needs an insider's help and recruits Gru in the investigation. Together with the eccentric AVL agent, Lucy Wilde, Gru concludes that his prime suspect is the presumed dead supervillain, El Macho, whose his teenage son is also making the moves on his eldest daughter, Margo. Seemingly blinded by his overprotectiveness of his children and his growing mutual attraction to Lucy, Gru seems on the wrong track even as his minions are being quietly kidnapped en masse for some malevolent purpose.\n\n\nCast Info:. \n\nSteve Carell\t ...\tGru (voice)\nKristen Wiig\t ...\tLucy (voice)\nBenjamin Bratt\t ...\tEduardo / El Macho (voice)\nMiranda Cosgrove\t ...\tMargo (voice)\nRussell Brand\t ...\tDr. Nefario (voice)\nKen Jeong\t ...\tFloyd (voice)\nSteve Coogan\t ...\tSilas (voice)\nElsie Fisher\t ...\tAgnes (voice)\nDana Gaier\t ...\tEdith (voice)\nMoises Arias\t ...\tAntonio (voice)\nNasim Pedrad\t ...\tJillian (voice)\nKristen Schaal\t ...\tShannon (voice)\nPierre Coffin\t ...\tKevin the Minion / Bob the Minion / Stuart the Minion / Additional Minions / Evil Minions (voice)\nChris Renaud\t ...\tAdditional Minions / Evil Minions / Italian Waiter (voice)\nNickolai Stoilov\t ...\tArctic Lab Guard (voice)\n\n\n\nGeneral Info:. \n\nDirector:Pierre Coffin, Chris Renaud\nWriters: Cinco Paul, Ken Daurio\nStars: Steve Carell, Kristen Wiig, Benjamin Bratt\nRelease Date: 3 July 2013 (USA)\nGenres:Animation | Adventure | Comedy\n\nVideo Info:. \n\nVideo\nID                                       : 1\nFormat                                   : AVC\nFormat/Info                              : Advanced Video Codec\nFormat profile                           : &lt;a class=&quot;__cf_email__&quot; href=&quot;/cdn-cgi/l/email-protection&quot; data-cfemail=&quot;bef3dfd7d0fef28a908e&quot;&gt;[email&amp;#160;protected]&lt;/a&gt;&lt;script cf-hash='f9e31' type=&quot;text/javascript&quot;&gt;\n/* &lt;![CDATA[ */!function(){try{var t=&quot;currentScript&quot;in document?document.currentScript:function(){for(var t=document.getElementsByTagName(&quot;script&quot;),e=t.length;e--;)if(t[e].getAttribute(&quot;cf-hash&quot;))return t[e]}();if(t&amp;&amp;t.previousSibling){var e,r,n,i,c=t.previousSibling,a=c.getAttribute(&quot;data-cfemail&quot;);if(a){for(e=&quot;&quot;,r=parseInt(a.substr(0,2),16),n=2;a.length-n;n+=2)i=parseInt(a.substr(n,2),16)^r,e+=String.fromCharCode(i);e=document.createTextNode(e),c.parentNode.replaceChild(e,c)}}}catch(u){}}();/* ]]&gt; */&lt;/script&gt;\nFormat settings, CABAC                   : Yes\nFormat settings, ReFrames                : 4 frames\nCodec ID                                 : V_MPEG4/ISO/AVC\nDuration                                 : 1h 38mn\nBit rate                                 : 5 700 Kbps\nWidth                                    : 1 920 pixels\nHeight                                   : 1 040 pixels\nDisplay aspect ratio                     : 1.85:1\nFrame rate mode                          : Constant\nFrame rate                               : 23.976 fps\nColor space                              : YUV\nChroma subsampling                       : 4:2:0\nBit depth                                : 8 bits\nScan type                                : Progressive\nBits/(Pixel*Frame)                       : 0.119\nStream size                              : 3.82 GiB (81%)\n\n\nAudio Info:. \n\nAudio #1\nID                                       : 2\nFormat                                   : DTS\nFormat/Info                              : Digital Theater Systems\nMode                                     : 16\nFormat settings, Endianness              : Big\nCodec ID                                 : A_DTS\nDuration                                 : 1h 38mn\nBit rate mode                            : Constant\nBit rate                                 : 768 Kbps\nChannel count                            : 6 channels\nChannel positions                        : Front: L C R, Side: L R, LFE\nSampling rate                            : 48.0 KHz\nBit depth                                : 24 bits\nCompression mode                         : Lossy\nStream size                              : 539 MiB (11%)\nTitle                                    : DTS 5.1CH ORG BY - DGrea8\nLanguage                                 : Hindi\nDefault                                  : No\nForced                                   : No\n\n\nAudio #2\nID                                       : 3\nFormat                                   : AC-3\nFormat/Info                              : Audio Coding 3\nMode extension                           : CM (complete main)\nFormat settings, Endianness              : Big\nCodec ID                                 : A_AC3\nDuration                                 : 1h 38mn\nBit rate mode                            : Constant\nBit rate                                 : 384 Kbps\nChannel count                            : 6 channels\nChannel positions                        : Front: L C R, Side: L R, LFE\nSampling rate                            : 48.0 KHz\nBit depth                                : 16 bits\nCompression mode                         : Lossy\nStream size                              : 269 MiB (6%)\nTitle                                    : Dolby Digtal 5.1Ch Org By - DGrea8\nLanguage                                 : English\nDefault                                  : Yes\nForced                                   : No\n\nSubtitle      :Hindi,English\n\n\nScreen Shoots:-\n  &lt;a href=&quot;\nhttp://img51.imageshack.us/img51/7726/xmqu.jpg&quot; rel=&quot;nofollow&quot; target=&quot;_NEW&quot;&gt;\nhttp://img51.imageshack.us/img51/7726/xmqu.jpg&lt;/a&gt;\n &lt;a href=&quot;\nhttp://img24.imageshack.us/img24/5271/z1hx.jpg&quot; rel=&quot;nofollow&quot; target=&quot;_NEW&quot;&gt;\nhttp://img24.imageshack.us/img24/5271/z1hx.jpg&lt;/a&gt;\n &lt;a href=&quot;\nhttp://img692.imageshack.us/img692/8867/69tg.jpg&quot; rel=&quot;nofollow&quot; target=&quot;_NEW&quot;&gt;\nhttp://img692.imageshack.us/img692/8867/69tg.jpg&lt;/a&gt;\n &lt;a href=&quot;\nhttp://img12.imageshack.us/img12/4561/db9s.jpg&quot; rel=&quot;nofollow&quot; target=&quot;_NEW&quot;&gt;\nhttp://img12.imageshack.us/img12/4561/db9s.jpg&lt;/a&gt;\n &lt;a href=&quot;\nhttp://img197.imageshack.us/img197/1905/rzj2.jpg&quot; rel=&quot;nofollow&quot; target=&quot;_NEW&quot;&gt;\nhttp://img197.imageshack.us/img197/1905/rzj2.jpg&lt;/a&gt;\n &lt;a href=&quot;\nhttp://img17.imageshack.us/img17/5164/lgqi.jpg&quot; rel=&quot;nofollow&quot; target=&quot;_NEW&quot;&gt;\nhttp://img17.imageshack.us/img17/5164/lgqi.jpg&lt;/a&gt;\n\n\nNote:-- Check The Torrent\n\n\nCheck The Sample Video In This Torrent\t\t\n\t\t\t\t","torrent":{"xt":"urn:btih:316ac742bfe67a903732df2dff2458320419d200","amp;dn":"Despicable+Me-2%282013%291080p+BDRip%5BHindi%28Dts%29-Eng%5DDD5.1-DGrea8","amp;tr":["udp%3A%2F%2Ftracker.openbittorrent.com%3A80","udp%3A%2F%2Fopen.demonii.com%3A1337","udp%3A%2F%2Ftracker.coppersurfer.tk%3A6969","udp%3A%2F%2Fexodus.desync.com%3A6969"],"infoHash":"316ac742bfe67a903732df2dff2458320419d200","infoHashBuffer":{"type":"Buffer","data":[49,106,199,66,191,230,122,144,55,50,223,45,255,36,88,50,4,25,210,0]},"announce":[],"urlList":[]}}